<svg width="81" height="27" viewBox="0 0 81 27" fill="none" xmlns="http://www.w3.org/2000/svg">
<path d="M0.392578 26V0.300781H4.59375V26H0.392578ZM28.0605 26H23.9121V14.0469C23.9121 12.5469 23.6074 11.4277 22.998 10.6895C22.4004 9.95117 21.4453 9.58203 20.1328 9.58203C18.3867 9.58203 17.1094 10.0977 16.3008 11.1289C15.4922 12.1602 15.0879 13.8887 15.0879 16.3145V26H10.957V6.55859H14.1914L14.7715 9.10742H14.9824C15.5684 8.18164 16.4004 7.4668 17.4785 6.96289C18.5566 6.45898 19.752 6.20703 21.0645 6.20703C25.7285 6.20703 28.0605 8.58008 28.0605 13.3262V26ZM41.0508 23.0117C42.0586 23.0117 43.0664 22.8535 44.0742 22.5371V25.6484C43.6172 25.8477 43.0254 26.0117 42.2988 26.1406C41.584 26.2812 40.8398 26.3516 40.0664 26.3516C36.1523 26.3516 34.1953 24.2891 34.1953 20.1641V9.6875H31.541V7.85938L34.3887 6.34766L35.7949 2.23438H38.3438V6.55859H43.8809V9.6875H38.3438V20.0938C38.3438 21.0898 38.5898 21.8281 39.082 22.3086C39.5859 22.7773 40.2422 23.0117 41.0508 23.0117ZM57.8379 6.20703C58.6699 6.20703 59.3555 6.26562 59.8945 6.38281L59.4902 10.2324C58.9043 10.0918 58.2949 10.0215 57.6621 10.0215C56.0098 10.0215 54.668 10.5605 53.6367 11.6387C52.6172 12.7168 52.1074 14.1172 52.1074 15.8398V26H47.9766V6.55859H51.2109L51.7559 9.98633H51.9668C52.6113 8.82617 53.4492 7.90625 54.4805 7.22656C55.5234 6.54688 56.6426 6.20703 57.8379 6.20703ZM80.7598 16.2441C80.7598 19.4199 79.9453 21.8984 78.3164 23.6797C76.6875 25.4609 74.4199 26.3516 71.5137 26.3516C69.6973 26.3516 68.0918 25.9414 66.6973 25.1211C65.3027 24.3008 64.2305 23.123 63.4805 21.5879C62.7305 20.0527 62.3555 18.2715 62.3555 16.2441C62.3555 13.0918 63.1641 10.6309 64.7812 8.86133C66.3984 7.0918 68.6777 6.20703 71.6191 6.20703C74.4316 6.20703 76.6582 7.11523 78.2988 8.93164C79.9395 10.7363 80.7598 13.1738 80.7598 16.2441ZM66.6094 16.2441C66.6094 20.7324 68.2676 22.9766 71.584 22.9766C74.8652 22.9766 76.5059 20.7324 76.5059 16.2441C76.5059 11.8027 74.8535 9.58203 71.5488 9.58203C69.8145 9.58203 68.5547 10.1562 67.7695 11.3047C66.9961 12.4531 66.6094 14.0996 66.6094 16.2441Z" fill="white"/>
</svg>
